<?xml version="1.0" encoding="UTF-8" standalone="no"?>
<svg
   xmlns:dc="http://purl.org/dc/elements/1.1/"
   xmlns:cc="http://creativecommons.org/ns#"
   xmlns:rdf="http://www.w3.org/1999/02/22-rdf-syntax-ns#"
   xmlns:svg="http://www.w3.org/2000/svg"
   xmlns="http://www.w3.org/2000/svg"
   xmlns:xlink="http://www.w3.org/1999/xlink"
   xmlns:sodipodi="http://sodipodi.sourceforge.net/DTD/sodipodi-0.dtd"
   xmlns:inkscape="http://www.inkscape.org/namespaces/inkscape"
   inkscape:export-ydpi="96"
   inkscape:export-xdpi="96"
   inkscape:export-filename="/home/neirth/NestedApi-logo (1).png"
   inkscape:version="1.0 (6e3e5246a0, 2020-05-07)"
   sodipodi:docname="NestedApi-logo (1).svg"
   id="svg71"
   preserveAspectRatio="xMidYMid meet"
   viewBox="0 0 6680 3620"
   height="362px"
   width="668px"
   version="1.0">
  <metadata
     id="metadata77">
    <rdf:RDF>
      <cc:Work
         rdf:about="">
        <dc:format>image/svg+xml</dc:format>
        <dc:type
           rdf:resource="http://purl.org/dc/dcmitype/StillImage" />
      </cc:Work>
    </rdf:RDF>
  </metadata>
  <defs
     id="defs75">
    <linearGradient
       inkscape:collect="always"
       id="linearGradient1008">
      <stop
         style="stop-color:#323232;stop-opacity:1"
         offset="0"
         id="stop998" />
      <stop
         id="stop1000"
         offset="0.21504426"
         style="stop-color:#6a4a63;stop-opacity:1" />
      <stop
         style="stop-color:#ba5a6f;stop-opacity:1"
         offset="0.31518289"
         id="stop1002" />
      <stop
         id="stop1004"
         offset="0.53487569"
         style="stop-color:#f67c51;stop-opacity:1" />
      <stop
         style="stop-color:#ffbc00;stop-opacity:1"
         offset="1"
         id="stop1006" />
    </linearGradient>
    <linearGradient
       inkscape:collect="always"
       id="linearGradient996">
      <stop
         style="stop-color:#323232;stop-opacity:1"
         offset="0"
         id="stop986" />
      <stop
         id="stop988"
         offset="0.18513034"
         style="stop-color:#6a4a63;stop-opacity:1" />
      <stop
         style="stop-color:#ba5a6f;stop-opacity:1"
         offset="0.26732203"
         id="stop990" />
      <stop
         id="stop992"
         offset="0.65717697"
         style="stop-color:#f67c51;stop-opacity:1" />
      <stop
         style="stop-color:#ffbc00;stop-opacity:1"
         offset="1"
         id="stop994" />
    </linearGradient>
    <linearGradient
       id="linearGradient99"
       inkscape:collect="always">
      <stop
         id="stop95"
         offset="0"
         style="stop-color:#323232;stop-opacity:1" />
      <stop
         style="stop-color:#6a4a63;stop-opacity:1"
         offset="0.29586962"
         id="stop926" />
      <stop
         id="stop928"
         offset="0.41727549"
         style="stop-color:#ba5a6f;stop-opacity:1" />
      <stop
         style="stop-color:#f67c51;stop-opacity:1"
         offset="0.53487569"
         id="stop930" />
      <stop
         id="stop97"
         offset="1"
         style="stop-color:#ffbc00;stop-opacity:1" />
    </linearGradient>
    <linearGradient
       gradientUnits="userSpaceOnUse"
       y2="-2561.0972"
       x2="9993.2656"
       y1="3391.4968"
       x1="259.44858"
       id="linearGradient101"
       xlink:href="#linearGradient99"
       inkscape:collect="always" />
    <linearGradient
       gradientUnits="userSpaceOnUse"
       y2="2119.2463"
       x2="8742.248"
       y1="3072.4404"
       x1="747.66217"
       id="linearGradient938"
       xlink:href="#linearGradient1008"
       inkscape:collect="always" />
    <linearGradient
       gradientUnits="userSpaceOnUse"
       y2="1980.2981"
       x2="5350.272"
       y1="2828.3347"
       x1="3317.0393"
       id="linearGradient940"
       xlink:href="#linearGradient996"
       inkscape:collect="always" />
  </defs>
  <sodipodi:namedview
     inkscape:current-layer="svg71"
     inkscape:window-maximized="1"
     inkscape:window-y="0"
     inkscape:window-x="0"
     inkscape:cy="169.16982"
     inkscape:cx="341.38138"
     inkscape:zoom="1.8532934"
     showgrid="false"
     id="namedview73"
     inkscape:window-height="995"
     inkscape:window-width="1920"
     inkscape:pageshadow="2"
     inkscape:pageopacity="0"
     guidetolerance="10"
     gridtolerance="10"
     objecttolerance="10"
     borderopacity="1"
     bordercolor="#666666"
     pagecolor="#ffffff" />
  <g
     stroke="none"
     fill="#000000"
     id="layer101">
    <path
       style="fill-opacity:1;fill:url(#linearGradient101)"
       id="path68"
       d="M5215 2044 c-261 -11 -662 -66 -920 -125 -189 -44 -286 -71 -513 -146 -230 -76 -177 -75 -437 -13 -518 123 -1051 188 -1621 197 -345 6 -352 5 -363 -14 -6 -12 -8 -42 -4 -70 l5 -50 342 -6 c423 -7 720 -32 1096 -93 192 -31 441 -81 478 -96 26 -11 25 -12 -33 -24 -254 -57 -264 -58 -318 -46 -472 104 -736 141 -1142 162 -328 16 -736 -7 -1010 -57 -49 -9 -93 -19 -98 -23 -8 -7 8 -96 22 -119 8 -12 20 -11 82 2 176 39 369 52 774 52 442 0 609 -13 963 -76 128 -23 165 -34 142 -43 -166 -61 -279 -97 -335 -106 -480 -74 -942 -208 -1377 -397 -100 -43 -128 -60 -128 -75 0 -25 37 -98 53 -104 7 -2 51 13 97 34 133 62 351 145 523 201 170 55 317 95 324 88 2 -3 -47 -35 -109 -72 -157 -94 -342 -222 -478 -330 -217 -173 -430 -380 -430 -418 0 -16 70 -77 89 -77 6 0 69 57 139 128 265 265 606 509 993 711 276 143 465 210 570 199 30 -3 23 -9 -112 -97 -166 -108 -376 -263 -498 -365 -46 -39 -98 -82 -115 -95 -64 -50 -196 -186 -196 -203 0 -20 66 -68 93 -68 11 0 60 39 110 86 250 236 661 531 1013 728 l101 56 192 0 191 0 143 -54 c188 -72 270 -106 280 -116 10 -9 -18 -16 -103 -25 -306 -35 -681 -133 -983 -256 -208 -86 -516 -255 -530 -293 -5 -13 56 -106 70 -106 3 0 49 26 102 59 335 205 714 345 1151 425 160 29 409 56 518 56 73 0 85 -3 158 -41 156 -82 382 -217 551 -331 56 -37 105 -68 107 -68 10 0 48 45 62 73 13 24 13 31 2 45 -14 17 -243 169 -380 251 -49 29 -88 57 -88 62 0 5 2 9 4 9 83 0 556 -66 643 -89 37 -11 91 -46 233 -155 189 -144 354 -294 529 -479 34 -37 68 -67 73 -67 21 0 88 62 88 82 0 24 -245 276 -398 410 -57 50 -101 92 -99 95 3 2 47 -10 98 -26 103 -34 108 -33 128 28 17 53 14 70 -16 82 -71 27 -262 84 -402 120 -138 35 -240 77 -210 87 24 9 495 -127 689 -198 94 -35 100 -33 124 38 13 37 14 49 4 59 -14 13 -171 69 -358 127 -220 68 -507 139 -785 196 -118 23 -162 38 -280 92 -77 36 -195 87 -262 113 -68 27 -123 53 -123 58 0 14 408 2 614 -18 196 -18 337 -37 529 -72 94 -17 151 -23 157 -17 18 18 30 108 17 121 -7 7 -77 23 -157 37 -369 63 -600 86 -964 93 -158 3 -282 9 -274 14 7 4 54 19 103 32 461 128 1047 193 1519 168 110 -6 204 -7 208 -3 5 5 10 35 11 68 l2 58 -40 7 c-47 9 -505 18 -620 13z m-1336 -580 c232 -78 233 -83 13 -64 -64 6 -210 14 -324 18 -233 8 -264 17 -185 52 51 23 191 48 276 49 40 1 94 -13 220 -55z m346 -240 c298 -38 362 -51 434 -88 67 -34 93 -61 49 -52 -45 10 -255 25 -427 32 l-173 6 -142 69 -141 69 105 -6 c58 -3 191 -16 295 -30z" />
  </g>
  <text
     id="text81"
     y="2935.0188"
     x="2038.4581"
     style="font-style:normal;font-weight:normal;font-size:400px;line-height:1.25;font-family:sans-serif;fill:url(#linearGradient938);fill-opacity:1;stroke:none;stroke-width:10"
     xml:space="preserve"><tspan
       style="font-style:normal;font-variant:normal;font-weight:300;font-stretch:normal;font-size:533.333px;font-family:'Open Sans';-inkscape-font-specification:'Open Sans, Light';font-variant-ligatures:normal;font-variant-caps:normal;font-variant-numeric:normal;font-variant-east-asian:normal;stroke-width:10;fill-opacity:1;fill:url(#linearGradient938)"
       y="2935.0188"
       x="2038.4581"
       id="tspan79"
       sodipodi:role="line">Nested</tspan></text>
  <text
     id="text85"
     y="2937.8223"
     x="3817.3699"
     style="font-style:normal;font-weight:normal;font-size:400px;line-height:1.25;font-family:sans-serif;fill:url(#linearGradient940);fill-opacity:1;stroke:none;stroke-width:10"
     xml:space="preserve"><tspan
       style="font-style:normal;font-variant:normal;font-weight:normal;font-stretch:normal;font-size:533.333px;font-family:sans-serif;-inkscape-font-specification:'sans-serif, Normal';font-variant-ligatures:normal;font-variant-caps:normal;font-variant-numeric:normal;font-variant-east-asian:normal;fill:url(#linearGradient940);fill-opacity:1;stroke-width:10"
       y="2937.8223"
       x="3817.3699"
       id="tspan83"
       sodipodi:role="line">Api</tspan></text>
</svg>
